<?xml version="1.0" encoding="UTF-8"?>
<svg width="119px" height="33px" viewBox="0 0 119 33" version="1.1" xmlns="http://www.w3.org/2000/svg" xmlns:xlink="http://www.w3.org/1999/xlink">
    <!-- Generator: Sketch 53.2 (72643) - https://sketchapp.com -->
    <title>Combined Shape</title>
    <desc>Created with Sketch.</desc>
    <g id="Page-1" stroke="none" stroke-width="1" fill="none" fill-rule="evenodd">
        <path d="M8.93360759,-4.26325641e-14 C10.1374684,-4.26325641e-14 11.1462658,0.225632911 11.9585443,0.676898734 C12.7708228,1.12816456 13.4171519,1.62455696 13.8975316,2.16607595 L13.3108861,4.28702532 C12.7984063,3.59408098 12.1735231,2.99183142 11.4621519,2.50525316 C10.7386709,2.00740506 9.89727848,1.75993671 8.93506329,1.75993671 C6.76753165,1.75993671 5.0993038,3.00018987 3.92455696,5.48360759 C2.75126582,7.96556962 2.16462025,11.4621519 2.16462025,15.9748101 C2.16462025,20.5165823 2.73670886,24.068481 3.87943038,26.6246835 C5.02360759,29.1823418 6.7078481,30.460443 8.93506329,30.460443 C10.1374684,30.460443 11.1302532,30.2202532 11.911962,29.7384177 C12.6951266,29.258038 13.2963291,28.8067722 13.7170253,28.3846203 L14.3487975,30.0091772 C14.1308833,30.22043 13.9050904,30.4234008 13.6718987,30.6176582 C13.3720253,30.8738608 12.9877215,31.1227848 12.5218987,31.3629747 C12.0560759,31.6031646 11.514557,31.806962 10.8973418,31.9714557 C10.2415279,32.142129 9.56611776,32.2258211 8.88848101,32.2203797 C7.4764557,32.2203797 6.2114557,31.8520886 5.0993038,31.1140506 C3.9856962,30.3774684 3.05259494,29.3235443 2.3014557,27.9551899 C1.54886076,26.5868354 0.976772152,24.9025949 0.58664557,22.9010127 C0.193607595,20.9008861 -2.39808173e-13,18.6372785 -2.39808173e-13,16.1101899 C-2.39808173e-13,13.5831013 0.202341772,11.3194937 0.608481013,9.31936709 C1.01462025,7.31778481 1.60126582,5.6335443 2.36841772,4.26373418 C3.13556962,2.89537975 4.06867089,1.84291139 5.16626582,1.10487342 C6.26386076,0.368291139 7.52012658,-3.74608923e-14 8.93506329,-3.74608923e-14 L8.93360759,-4.26325641e-14 Z M24.5022785,10.2888608 C23.359557,10.2888608 22.3522152,10.7255696 21.4802532,11.5975316 C20.6068354,12.4709494 19.8848101,13.6282278 19.3127215,15.0722785 L19.3127215,31.7691139 L17.283481,31.7691139 L17.283481,0.406139241 L19.3127215,0.406139241 L19.3127215,12.5903165 L19.4044304,12.5903165 C19.5237975,12.2293038 19.7348734,11.8158861 20.0347468,11.3486076 C20.701318,10.3208381 21.6492436,9.50630924 22.7656329,9.00202532 C23.4255569,8.70737808 24.1421449,8.5612776 24.8647468,8.57405063 C26.3990506,8.57405063 27.5723418,9.03987342 28.3831646,9.97297468 C29.1968987,10.9046203 29.6015823,12.2744304 29.6015823,14.0794937 L29.6015823,31.7691139 L27.5723418,31.7691139 L27.5723418,14.26 C27.5723418,11.6120886 26.5489873,10.2888608 24.5022785,10.2888608 Z M35.2889873,20.7582278 C35.3472152,23.9170886 35.7839241,26.3233544 36.5962025,27.978481 C37.4099367,29.6336076 38.6574684,30.460443 40.3417089,30.460443 C41.0943038,30.460443 41.7566456,30.3396203 42.3287342,30.0994304 C42.8993671,29.8592405 43.3812025,29.5724684 43.7713291,29.2420253 C44.2225949,28.9115823 44.5996203,28.505443 44.8994937,28.0236076 L45.5778481,29.6932911 C45.2102572,30.1807075 44.7681207,30.6071236 44.2677215,30.9568354 C43.8470253,31.2872785 43.2982278,31.5813291 42.6213291,31.8375316 C41.9444304,32.0922785 41.17,32.2203797 40.2965823,32.2203797 C37.8903165,32.2203797 36.1231013,31.1897468 34.9949367,29.1299367 C33.8667722,27.0686709 33.3034177,24.1572785 33.3034177,20.3972152 C33.3034177,18.5324684 33.4679114,16.8700633 33.7983544,15.4114557 C34.1302532,13.9513924 34.5887975,12.7111392 35.175443,11.6877848 C35.7620886,10.6644304 36.4535443,9.89 37.2512658,9.36303797 C38.0321926,8.8418156 38.9515771,8.56696376 39.890443,8.57405063 C40.8541139,8.57405063 41.7260759,8.83025316 42.5092405,9.34120253 C43.2909494,9.8521519 43.9372785,10.6193038 44.4482278,11.6426582 C44.9606329,12.6660127 45.3216456,13.9368354 45.5327215,15.4565823 C45.7423418,16.9748734 45.7583544,18.7420886 45.5763924,20.7582278 L35.2889873,20.7582278 Z M55.956962,30.460443 C56.7081013,30.460443 57.3631646,30.3396203 57.9192405,30.0994304 C58.4753165,29.8592405 58.9498734,29.5724684 59.3414557,29.2420253 C59.7927215,28.9115823 60.1682911,28.505443 60.4681646,28.0236076 L61.1450633,29.6932911 C60.7779128,30.1805939 60.3362738,30.607004 59.8363924,30.9568354 C59.4156962,31.2872785 58.8756329,31.5813291 58.2132911,31.8375316 C57.5509494,32.0922785 56.7837975,32.2203797 55.9103797,32.2203797 C53.6249367,32.2203797 51.8577215,31.1897468 50.6087342,29.1299367 C49.3597468,27.0686709 48.7352532,24.1732911 48.7352532,20.4423418 C48.7352532,16.6822785 49.3524684,13.7636076 50.5868987,11.6877848 C51.8198734,9.61196203 53.6089241,8.57405063 55.9555063,8.57405063 C57.1593671,8.57405063 58.1594304,8.7778481 58.9571519,9.18253165 C59.7548734,9.59012658 60.408481,10.0937975 60.9194304,10.695 L60.3327848,12.8610759 C59.8208687,12.1684988 59.2045682,11.5595645 58.5058861,11.0560127 C57.7984177,10.5450633 56.9482911,10.2888608 55.9555063,10.2888608 C54.1810127,10.2888608 52.8723418,11.1681013 52.0294937,12.928038 C51.1881013,14.6894304 50.7659494,17.1932278 50.7659494,20.4423418 C50.7659494,23.6303165 51.1808228,26.0977215 52.0076582,27.8431013 C52.8344937,29.588481 54.150443,30.460443 55.9555063,30.460443 L55.956962,30.460443 Z M66.6068354,31.7691139 L64.5746835,31.7691139 L64.5746835,0.406139241 L66.6053797,0.406139241 L66.6053797,19.7203165 L74.2332278,9.02531646 L76.1722152,9.02531646 L68.6812025,19.5849367 L76.7151899,31.7691139 L74.505443,31.7691139 L66.6082911,19.9910759 L66.6082911,31.7691139 L66.6068354,31.7691139 Z M100.181013,30.5055696 C101.323734,30.5055696 102.309241,30.0688608 103.136076,29.1968987 C103.962911,28.323481 104.663101,27.1662025 105.233734,25.7221519 L105.233734,9.02531646 L107.26443,9.02531646 L107.26443,31.7691139 L105.415696,31.7691139 L105.323987,28.0236076 L105.23519,28.0236076 C105.083797,28.4457595 104.858165,28.8970253 104.558291,29.3774051 C104.256962,29.8577848 103.888671,30.3090506 103.451962,30.7312025 C103.015253,31.1533544 102.497025,31.5056329 101.894367,31.7924051 C101.293165,32.0777215 100.601709,32.2203797 99.82,32.2203797 C98.2842405,32.2203797 97.1124051,31.6861392 96.3001266,30.6191139 C95.4863924,29.5506329 95.0802532,27.993038 95.0802532,25.9477848 L95.0802532,9.02531646 L97.1109494,9.02531646 L97.1109494,25.7672785 C97.1109494,28.9261392 98.1343038,30.5055696 100.179557,30.5055696 L100.181013,30.5055696 Z M118.816835,31.4983544 C118.557058,31.6571267 118.276281,31.7786497 117.982722,31.8593671 C117.607392,31.9569204 117.220445,32.0024725 116.832722,31.9947468 C115.508038,31.9947468 114.538544,31.5507595 113.921329,30.6627848 C113.304114,29.7748101 112.995506,28.6248101 112.995506,27.2113291 L112.995506,10.6047468 L110.695506,10.6047468 L110.695506,9.02531646 L112.995506,9.02531646 L113.221139,4.96392405 L115.026203,4.96392405 L115.026203,9.02531646 L118.773165,9.02531646 L118.773165,10.6047468 L115.027658,10.6047468 L115.027658,26.9856962 C115.027658,29.2129114 115.703101,30.3250633 117.056899,30.3250633 C117.388797,30.3250633 117.659557,30.2872152 117.870633,30.2129747 C118.080253,30.1372785 118.246203,30.0688608 118.36557,30.0091772 L118.816835,31.4983544 Z M39.890443,10.2437342 C38.688038,10.2437342 37.6486709,11.0036076 36.7781646,12.5233544 C35.9047468,14.0416456 35.4243671,16.2601266 35.3326582,19.1787975 L43.6825316,19.1787975 C43.7713291,17.6444937 43.7407595,16.3139873 43.5908228,15.1858228 C43.4408861,14.0562025 43.1861392,13.124557 42.8251266,12.386519 C42.4626582,11.6499367 42.0274051,11.1084177 41.515,10.761962 C41.0394602,10.4277679 40.473116,10.2469441 39.8918987,10.2437342 L39.890443,10.2437342 Z M84.4318354,32.2203797 C83.4375949,32.2203797 82.5205063,31.9729114 81.6791139,31.4750633 C80.8348101,30.9801266 80.106962,30.2493671 79.4897468,29.2871519 C78.8725316,28.3249367 78.3834177,27.1137975 78.0224051,25.6551899 C77.6613924,24.1951266 77.4823418,22.4875949 77.4823418,20.5325949 C77.4823418,18.6372785 77.6613924,16.9457595 78.0224051,15.4565823 C78.3848734,13.9659494 78.8725316,12.7184177 79.4897468,11.7110759 C80.106962,10.7022785 80.8362658,9.9278481 81.6791139,9.38632911 C82.4969681,8.85219945 83.4535677,8.56977481 84.4303797,8.57405063 C85.4246203,8.57405063 86.3417089,8.81424051 87.184557,9.29607595 C88.0259494,9.7764557 88.7567089,10.5072152 89.3724684,11.485443 C89.9896835,12.4622152 90.4787975,13.6806329 90.8383544,15.1392405 C91.2008228,16.5993038 91.3813291,18.3068354 91.3813291,20.2618354 C91.3813291,22.1571519 91.2008228,23.8428481 90.8383544,25.3160127 C90.4773418,26.7906329 89.9896835,28.0381646 89.3724684,29.061519 C88.7552532,30.0848734 88.0259494,30.8665823 87.1831013,31.4081013 C86.365247,31.9422309 85.4086475,32.2246556 84.4318354,32.2203797 Z M84.4318354,30.5958228 C85.7856329,30.5958228 86.9429114,29.7617089 87.9065823,28.0920253 C88.8673418,26.4208861 89.3506329,23.8559494 89.3506329,20.3972152 C89.3506329,18.5921519 89.2225316,17.0491139 88.9663291,15.7724684 C88.7101266,14.4929114 88.3578481,13.4477215 87.9065823,12.635443 C87.4553165,11.8231646 86.9283544,11.221962 86.3271519,10.8303797 C85.7667151,10.4517802 85.106702,10.2476472 84.4303797,10.2437342 C83.0765823,10.2437342 81.9193038,11.0632911 80.9570886,12.7038608 C79.9934177,14.3429747 79.513038,16.9079114 79.513038,20.3972152 C79.513038,22.1731646 79.6396835,23.7060127 79.8958861,25.0001266 C80.1520886,26.2942405 80.5043671,27.3539873 80.9556329,28.1808228 C81.4068987,29.0091139 81.9265823,29.6175949 82.5132278,30.0091772 C83.0998734,30.4007595 83.7389241,30.5958228 84.4303797,30.5958228 L84.4318354,30.5958228 Z" id="Combined-Shape" fill="#FFFFFF"></path>
    </g>
</svg>