<?xml version="1.0" encoding="UTF-8"?>
<svg width="100px" height="39px" viewBox="0 0 100 39" version="1.1" xmlns="http://www.w3.org/2000/svg" xmlns:xlink="http://www.w3.org/1999/xlink">
    <!-- Generator: Sketch 53.2 (72643) - https://sketchapp.com -->
    <title>Combined Shape</title>
    <desc>Created with Sketch.</desc>
    <g id="Page-1" stroke="none" stroke-width="1" fill="none" fill-rule="evenodd">
        <path d="M8.34841772,38.2222152 L8.34841772,25.0452532 L5.32907052e-15,3.42962025 L3.97405063,3.42962025 L10.2451899,20.2167089 L17.3766456,-1.24344979e-13 L21.030443,-1.24344979e-13 L12.0051266,25.1806329 L12.0051266,38.2222152 L8.35132911,38.2222152 L8.34841772,38.2222152 Z M39.2164557,38.2222152 L35.6063291,38.2222152 L35.6063291,14.9368987 L39.2164557,14.9368987 L39.2164557,16.2906962 C39.6677215,15.9893671 40.1481013,15.7186076 40.6590506,15.4784177 C41.0812025,15.2673418 41.5703165,15.0722785 42.1263924,14.8917722 C42.6824684,14.7112658 43.2472785,14.6210127 43.8179114,14.6210127 C45.3536709,14.6210127 46.5400633,14.9893038 47.3843671,15.7273418 C48.2257595,16.4639241 48.6464557,17.5542405 48.6464557,18.9982911 L48.6464557,38.2222152 L45.0363291,38.2222152 L45.0363291,19.9910759 C45.0363291,19.2093671 44.7743038,18.615443 44.2473418,18.2078481 C43.7203797,17.8017089 43.0827848,17.5993671 42.3301899,17.5993671 C41.908038,17.5993671 41.5179114,17.6590506 41.155443,17.7798734 C40.8158329,17.8916982 40.4845624,18.027417 40.1641139,18.1860127 C39.8375728,18.363801 39.521196,18.5596533 39.2164557,18.7726582 L39.2164557,38.2222152 Z M83.5744304,37.1391772 C82.8232911,37.5613291 81.9877215,37.9281646 81.0706329,38.2455063 C80.1535443,38.5613924 79.1229114,38.7186076 77.9801899,38.7186076 C75.6321519,38.7186076 73.7528481,37.7403797 72.3393671,35.7853797 C70.9244304,33.8303797 70.216962,31.0776582 70.216962,27.5272152 C70.216962,25.8124051 70.3610759,24.164557 70.6463924,22.5851266 C70.9317089,21.0056962 71.3684177,19.6082278 71.9550633,18.3898101 C72.5417089,17.1699367 73.2855696,16.1917089 74.189557,15.4565823 C75.0920886,14.7185443 76.1736709,14.3502532 77.4386709,14.3502532 C79.301962,14.3502532 80.8071519,15.2818987 81.9513291,17.1481013 C83.0940506,19.0128481 83.6646835,21.7655696 83.6646835,25.4062658 L83.6646835,27.3918354 L73.9639241,27.3918354 C73.9639241,29.9189241 74.3918987,31.8899367 75.2493038,33.3034177 C76.1067089,34.7168987 77.4532278,35.4243671 79.2888608,35.4243671 C79.9803165,35.4243671 80.6950633,35.3268354 81.4316456,35.1317722 C82.0233939,34.9839819 82.6041593,34.7952575 83.1697468,34.566962 L83.5758861,37.1391772 L83.5744304,37.1391772 Z M99.460443,14.9368987 L94.9026582,25.8124051 L99.3701899,38.2222152 L95.7149367,38.2222152 L92.5109494,28.7907595 L89.125,38.2222152 L85.5148734,38.2222152 L90.4787975,26.3087975 L85.9661392,14.9368987 L89.8470253,14.9368987 L92.8268354,23.5109494 L95.9391139,14.9368987 L99.460443,14.9368987 Z M24.6405696,14.3051266 C26.7455063,14.3051266 28.3555063,14.8990506 29.4691139,16.0868987 C30.5812658,17.2762025 31.1373418,19.3287342 31.1373418,22.2474051 L31.1373418,38.2222152 L28.4748734,38.2222152 L28.1153165,36.6427848 C27.6029114,37.0940506 26.9944304,37.5307595 26.286962,37.9514557 C25.5794937,38.3736076 24.7148101,38.5832278 23.6914557,38.5832278 C21.9766456,38.5832278 20.6082911,37.9965823 19.5863924,36.8232911 C18.563038,35.65 18.0506329,33.9948734 18.0506329,31.8593671 C18.0506329,29.4531013 18.7056962,27.5941772 20.0143671,26.2855063 C21.323038,24.9768354 23.4352532,24.0670253 26.3539241,23.5560759 L27.5737975,23.330443 L27.5737975,22.2022785 C27.5737975,20.3972152 27.3408861,19.1191139 26.8736076,18.366519 C26.4077848,17.6139241 25.6624684,17.2383544 24.6405696,17.2383544 C23.8574051,17.2383544 23.1659494,17.4275949 22.5632911,17.8017089 C21.9008138,18.2285212 21.2944059,18.7366323 20.7582278,19.3141772 L19.1787975,16.200443 C19.8120253,15.7491772 20.6010127,15.3212025 21.5486709,14.9150633 C22.5267748,14.5025359 23.5790789,14.2949487 24.6405696,14.3051266 Z M66.651962,3.42962025 L66.651962,38.2222152 L63.9924051,38.2222152 L63.6313924,36.8232911 C63.0671899,37.3819203 62.4289755,37.8604586 61.7346203,38.2455063 C61.0041529,38.6535954 60.17959,38.8633746 59.3429114,38.8539873 C58.3210127,38.8539873 57.3733544,38.606519 56.4999367,38.1086709 C55.6279747,37.6137342 54.8768354,36.8917089 54.2436076,35.9425949 C53.6118354,34.9963924 53.1168987,33.8143671 52.7544304,32.4008861 C52.3934177,30.9874051 52.2129114,29.3468354 52.2129114,27.4820886 C52.2129114,23.1499367 52.9436709,19.8789873 54.4022785,17.6677848 C55.8608861,15.4551266 57.7649367,14.3502532 60.1100633,14.3502532 C60.983481,14.3502532 61.9602532,14.5758861 63.0432911,15.0271519 L63.0432911,3.42962025 L66.6534177,3.42962025 L66.651962,3.42962025 Z M56.0472152,26.7149367 C56.0472152,29.4225316 56.3863924,31.610443 57.0632911,33.2801266 C57.7401899,34.9512658 58.8450633,35.7853797 60.3808228,35.7853797 C60.8903165,35.7853797 61.3808861,35.6732911 61.8467089,35.4462025 C62.3125316,35.2205696 62.7113924,34.9876582 63.0418354,34.7474684 L63.0418354,18.2762658 C62.1698734,17.5848101 61.2367722,17.2383544 60.2439873,17.2383544 C59.521962,17.2383544 58.8989241,17.5091139 58.371962,18.0506329 C57.845,18.5921519 57.4097468,19.3068987 57.0632911,20.1934177 C56.6929276,21.1766511 56.4355574,22.1988064 56.2961392,23.2401899 C56.1301899,24.3829114 56.0486709,25.5416456 56.0486709,26.7149367 L56.0472152,26.7149367 Z M77.3032911,17.2383544 C76.7986999,17.2355438 76.3129489,17.4298442 75.9494937,17.7798734 C75.5564557,18.1408861 75.2274684,18.644557 74.9567089,19.2908861 C74.6844937,19.9386709 74.4748734,20.6985443 74.323481,21.5705063 C74.1735443,22.4439241 74.0687342,23.3901266 74.0075949,24.413481 L79.9643038,24.413481 L79.9643038,23.9170886 C79.9643038,23.7671519 79.9570253,23.6012025 79.9424684,23.4206962 C79.9270929,23.2255331 79.9198082,23.0298168 79.9206329,22.8340506 C79.7998101,21.0581013 79.513038,19.6824684 79.0617722,18.7056962 C78.6105063,17.7274684 78.0253165,17.2383544 77.3018354,17.2383544 L77.3032911,17.2383544 Z M27.5737975,26.1734177 L27.0322785,26.2636709 C25.9186709,26.4747468 25.0161392,26.7440506 24.3246835,27.0759494 C23.6317722,27.4063924 23.0975316,27.7979747 22.721962,28.2492405 C22.3463924,28.7005063 22.0901899,29.2114557 21.9548101,29.7835443 C21.8194304,30.3556329 21.7510127,30.9874051 21.7510127,31.6788608 C21.7510127,33.0326582 22.0217722,34.0108861 22.5632911,34.6120886 C23.1062658,35.2132911 23.8734177,35.5146203 24.8662025,35.5146203 C25.4368354,35.5146203 25.9259494,35.4243671 26.3320886,35.2438608 C26.7382278,35.0633544 27.1516456,34.8071519 27.5737975,34.4767089 L27.5737975,26.1734177 Z" id="Combined-Shape" fill="#FFFFFF"></path>
    </g>
</svg>